<svg width="56" height="56" viewBox="0 0 56 56" xmlns="http://www.w3.org/2000/svg"><rect width="56" height="56" rx="8" fill="#F0F3FA"/><path d="M17.47 27a.8.8 0 0 1-1.57 0 .77.77 0 0 1 .81-.8.77.77 0 0 1 .8.81" fill="#44B749"/><path d="M10.68 28.33h1.5v4.58h-1.5v-.52a1.92 1.92 0 0 1-1.55.7 2.2 2.2 0 0 1-2.2-2.4 2.38 2.38 0 0 1 2.37-2.54 1.77 1.77 0 0 1 1.43.68l-.05-.5Zm-2.2 2.32a1.1 1.1 0 0 0 1.1 1.24 1.2 1.2 0 0 0 1.1-1.26 1.1 1.1 0 0 0-1.1-1.23 1.1 1.1 0 0 0-1.1 1.25ZM14.8 26.32h-1.5v6.58h1.5v-6.58ZM17.42 28.33h-1.5v4.57h1.5v-4.57ZM22.56 32.4c-.48.45-1.13.7-1.79.68-.68 0-1.33-.26-1.82-.72a2.29 2.29 0 0 1-.7-1.72 2.41 2.41 0 0 1 2.5-2.49c.72.01 1.4.3 1.91.8l-1 .9a1.1 1.1 0 0 0-.83-.36 1.1 1.1 0 0 0-1.1 1.1 1.1 1.1 0 0 0 1.1 1.16c.28 0 .56-.12.76-.33l.97.98ZM24.37 30.94a1 1 0 0 0 1.04.82.96.96 0 0 0 .9-.5l1.38.35a2.56 2.56 0 0 1-4.71-1.97 2.34 2.34 0 0 1 2.32-1.49 2.43 2.43 0 0 1 2.53 2.6v.19h-3.46Zm1.93-.8a.92.92 0 0 0-.99-.74.9.9 0 0 0-.95.75h1.94Z" fill="#0D4593"/><path d="M30.2 32.9h-1.56v-6.6h1.56v2.48a1.73 1.73 0 0 1 1.42-.64 2.33 2.33 0 0 1 2.35 2.49 2.2 2.2 0 0 1-2.3 2.44 1.65 1.65 0 0 1-1.47-.66v.5Zm0-2.2a1.1 1.1 0 1 0 2.2 0 1.17 1.17 0 0 0-1.1-1.25 1.22 1.22 0 0 0-1.1 1.28M36.26 26.32h-1.5v6.58h1.5v-6.58ZM41.55 28.33v2.88a1.62 1.62 0 0 1-.55 1.41 2.85 2.85 0 0 1-3.18 0 1.66 1.66 0 0 1-.5-1.36v-2.93h1.5v2.77c0 .48.22.74.63.74a.56.56 0 0 0 .6-.63v-2.88h1.5ZM43.87 30.94a1 1 0 0 0 1.1.82.95.95 0 0 0 .9-.5l1.39.35c-.16.37-.42.7-.75.93a2.55 2.55 0 0 1-4.21-1.94 2.34 2.34 0 0 1 2.48-2.45 2.42 2.42 0 0 1 2.52 2.6v.19h-3.43Zm1.94-.8a.91.91 0 0 0-1-.74.9.9 0 0 0-.95.75h1.95Z" fill="#276AB4"/><path d="M28.26 35.28H7.06v.24h21.2v-.24ZM40.95 24.27l-.69 1.1a2.55 2.55 0 0 1-2.3-1.19c-.49-1.03.21-2.47 1.67-3.73l1.1.31c-1.18.95-1.8 2-1.45 2.74a1.78 1.78 0 0 0 1.71.77" fill="#44B749"/><path d="M48.03 22.02c-.93 1-2.05 1.8-3.3 2.35a10.2 10.2 0 0 1-4 1.02l.7-1.1a9.2 9.2 0 0 0 5.31-2.48l1.29.2ZM48.32 21.66l-1.24-.24a1.83 1.83 0 0 0 .53-1.85c-.5-1.1-2.77-1.03-5.08.06-.5.23-.99.51-1.44.84l-1.1-.32a10.8 10.8 0 0 1 2.2-1.31c3.03-1.43 6-1.26 6.8.18a2.64 2.64 0 0 1-.64 2.64" fill="#276AB4"/><path d="M44.15 23c-.97.5-2.04.74-3.13.69l.7-.75c.77.07 1.53-.08 2.2-.44 1.26-.58 2.06-1.5 1.81-2.04-.25-.55-1.47-.5-2.73.08-.39.18-.76.4-1.1.66l-.9-.05a7.7 7.7 0 0 1 1.74-1.1c1.89-.9 3.74-.95 4.12-.13.39.81-.84 2.2-2.74 3.09" fill="#44B749"/><path d="m43.27 21.3-1.54 1.64-.7.75a1.1 1.1 0 0 1-1-.56c-.25-.52.17-1.28 1-1.98l.9.05 1.34.1Z" fill="#0D4593"/><path d="M29.97 35.9a.56.56 0 0 1-.26.19 1.1 1.1 0 0 1-.38.06c-.1 0-.2-.03-.3-.09a.5.5 0 0 1-.2-.22.71.71 0 0 1-.08-.32 1.18 1.18 0 0 1 .15-.81c.07-.11.16-.2.28-.27a.7.7 0 0 1 .37-.1c.14 0 .29.06.4.15.09.11.15.25.16.4h-.23a.4.4 0 0 0-.1-.26.3.3 0 0 0-.24-.1.5.5 0 0 0-.38.17.94.94 0 0 0-.2.5v.26c.01.12.06.24.14.34a.38.38 0 0 0 .27.13.6.6 0 0 0 .41-.13l.07-.4h-.4v-.18h.63l-.11.68ZM31.08 35.02h-.1a.37.37 0 0 0-.33.19l-.17.93h-.2l.22-1.3h.2v.15a.38.38 0 0 1 .33-.18h.1l-.05.2ZM31.8 34.8c.1 0 .19.03.27.09a.4.4 0 0 1 .17.24c.03.1.03.22 0 .33 0 .12-.04.24-.1.35a.58.58 0 0 1-.24.23c-.1.06-.2.1-.32.09-.1 0-.2-.03-.27-.09a.55.55 0 0 1-.18-.24.8.8 0 0 1 0-.33c.01-.13.05-.25.11-.36.06-.1.14-.2.23-.26.1-.04.21-.06.32-.05Zm-.45.7a.42.42 0 0 0 0 .16c0 .08.03.15.08.22a.27.27 0 0 0 .2.08.25.25 0 0 0 .2 0c.06-.03.12-.09.15-.16a.94.94 0 0 0 .09-.26v-.2a.44.44 0 0 0-.09-.21.26.26 0 0 0-.2-.1.37.37 0 0 0-.28.13.67.67 0 0 0-.15.36v-.03ZM33.62 35.8l.4-1h.24l-.6 1.3h-.16l-.13-.98-.48.99h-.17l-.15-1.31h.21l.08.97.46-.97h.18l.12 1ZM34.83 34.5l-.06.32h.25V35h-.23l-.2.8v.07a.1.1 0 0 0 .05.06.1.1 0 0 0 .07.02h.1v.2h-.17a.22.22 0 0 1-.2-.1.36.36 0 0 1 0-.26l.14-.8h-.23v-.18h.25l.05-.32.18.01ZM35.46 34.99a.52.52 0 0 1 .4-.2.34.34 0 0 1 .27.13c.06.1.08.23.06.35l-.14.86h-.22l.14-.86v-.1a.18.18 0 0 0-.2-.18.4.4 0 0 0-.34.2l-.16.94h-.22l.32-1.86h.22l-.13.72ZM37.26 36.13h-.22l.3-1.76h.23l-.3 1.76ZM38.09 34.82V35a.52.52 0 0 1 .4-.2.33.33 0 0 1 .27.13c.06.1.08.23.06.35l-.14.86h-.22l.14-.86a.19.19 0 0 0 0-.1.18.18 0 0 0-.2-.18.4.4 0 0 0-.34.2l-.16.94h-.22l.22-1.3h.19ZM39.55 36.15a.5.5 0 0 1-.49-.4.58.58 0 0 1 0-.23v-.05a.96.96 0 0 1 .11-.35c.06-.1.14-.19.24-.24a.53.53 0 0 1 .28-.08.4.4 0 0 1 .32.13c.08.1.13.22.13.35v.26h-.86c0 .1.01.21.07.3a.28.28 0 0 0 .24.13.44.44 0 0 0 .35-.18l.13.1a.57.57 0 0 1-.52.26Zm.14-1.17a.32.32 0 0 0-.24.1.55.55 0 0 0-.15.27h.62a.37.37 0 0 0-.05-.25.25.25 0 0 0-.18-.13ZM40.73 35.8l.46-1h.23l-.65 1.3h-.18l-.25-1.3h.22l.17 1ZM41.66 36.13h-.22l.22-1.3h.22l-.22 1.3Zm.18-1.78a.12.12 0 0 1 .08 0v.09c.02.03.02.06 0 .1a.12.12 0 0 1-.08 0 .15.15 0 0 1-.1 0 .12.12 0 0 1 0-.1.12.12 0 0 1 0-.1.11.11 0 0 1 .1 0ZM42.58 34.5v.32h.25V35h-.23l-.15.8v.07a.1.1 0 0 0 .11.08h.1v.2h-.16a.22.22 0 0 1-.2-.1.36.36 0 0 1 0-.26l.13-.8h-.23v-.18h.1v-.32l.28.01ZM43.6 36.13v-.14c-.1.1-.23.16-.37.16-.1 0-.2-.04-.28-.1a.4.4 0 0 1 .09-.6.77.77 0 0 1 .44-.11h.23v-.11a.22.22 0 0 0 0-.19.2.2 0 0 0-.17-.06.38.38 0 0 0-.2.05.22.22 0 0 0-.1.15H43a.4.4 0 0 1 .1-.2c.05-.06.12-.1.19-.14a.74.74 0 0 1 .26 0 .42.42 0 0 1 .31.12.38.38 0 0 1 .1.32l-.1.64v.23l-.26-.02Zm-.33-.18c.06.02.13.02.2 0l.15-.15v-.27h-.11a.6.6 0 0 0-.32.06.2.2 0 0 0-.12.19.19.19 0 0 0 0 .15.25.25 0 0 0 .2.02ZM45.3 35.48c0 .13-.04.25-.1.36a.6.6 0 0 1-.2.23.5.5 0 0 1-.28.08.42.42 0 0 1-.35-.17v.15h-.2l.33-1.86h.22l-.13.7a.5.5 0 0 1 .38-.17.34.34 0 0 1 .29.13c.07.11.1.24.1.37v.18h-.06Zm-.2-.13a.4.4 0 0 0 0-.27.21.21 0 0 0-.2-.1.4.4 0 0 0-.35.21l-.1.57a.3.3 0 0 0 .5.13.5.5 0 0 0 .15-.23c.02-.1.01-.21 0-.31ZM45.7 36.13h-.2l.32-1.86h.22l-.33 1.86ZM46.63 36.15a.46.46 0 0 1-.37-.18.58.58 0 0 1-.12-.45v-.05a.78.78 0 0 1 .34-.6c.09-.05.2-.07.3-.07a.37.37 0 0 1 .3.13c.09.1.13.22.14.35v.26h-.85c-.02.1 0 .21.05.3a.28.28 0 0 0 .25.13.43.43 0 0 0 .35-.18l.13.1a.6.6 0 0 1-.52.26Zm.15-1.17a.34.34 0 0 0-.25.1.55.55 0 0 0-.15.27h.63a.33.33 0 0 0 0-.25.25.25 0 0 0-.23-.13Z" fill="#4C4D50"/></svg>