<svg xmlns="http://www.w3.org/2000/svg" width="56" height="56" viewBox="0 0 56 56"><path d="M0 8a8 8 0 0 1 8-8h40a8 8 0 0 1 8 8v40a8 8 0 0 1-8 8H8a8 8 0 0 1-8-8V8z" fill="#F0F3FA"/><path d="M9 34.76V43a26.23 26.23 0 0 0 19.01-8.15A25.42 25.42 0 0 0 31.63 30c.36-.6.75-1.18 1.17-1.74l.2-.25a17.81 17.81 0 0 1 14-6.77V13a26.28 26.28 0 0 0-17.6 6.77 26.25 26.25 0 0 0-4.98 6.13c-.37.64-.77 1.25-1.22 1.84L23 28a17.84 17.84 0 0 1-14 6.75z" fill="#2A54FF"/><path d="M47 34.76V43a26.23 26.23 0 0 1-19.01-8.15A25.42 25.42 0 0 1 24.37 30c-.36-.6-.75-1.18-1.17-1.74l-.2-.25a17.81 17.81 0 0 0-14-6.77V13a26.28 26.28 0 0 1 17.6 6.77 26.25 26.25 0 0 1 4.98 6.13c.37.64.77 1.25 1.22 1.84l.2.27a17.84 17.84 0 0 0 14 6.75z" fill="#2A54FF"/></svg>