<svg width="56" height="56" viewBox="0 0 56 56" xmlns="http://www.w3.org/2000/svg"><rect width="56" height="56" rx="8" fill="#F0F3FA"/><path d="m10.21 33.4 17.73-21.15a.64.64 0 0 1 1.01 0l17.84 21.29c.45.54.13 1.46-.51 1.46l-35.56-.13c-.64 0-.96-.92-.5-1.46Z" fill="#00BDF2"/><path d="m9.2 41.5 18.26-21.27a.63.63 0 0 1 .75-.17c.08.04.16.1.21.17l18.38 21.4c.43.51.12 1.37-.49 1.37l-36.63-.13c-.6 0-.9-.87-.48-1.37Z" fill="#223369"/><path d="M25.6 30.02c-.08 0-.16 0-.24-.03a.59.59 0 0 1-.21-.13.51.51 0 0 1-.15-.35c0-.13.05-.26.15-.35a.6.6 0 0 1 .21-.13.65.65 0 0 1 .25-.03h5.78a.61.61 0 0 1 .43.13c.11.1.17.22.18.36a.5.5 0 0 1-.36.5.63.63 0 0 1-.25.03h-.85c-.36 0-.68 0-.92-.02-.24 0-.4-.02-.45-.03v.06a1.93 1.93 0 0 1 1.1 1.18h1.12a.6.6 0 0 1 .23.02c.11.04.2.1.28.2.06.08.1.19.1.3 0 .12-.05.25-.15.34a.6.6 0 0 1-.21.12.65.65 0 0 1-.25.04h-1.02a2.48 2.48 0 0 1-1.15 1.87c-.3.2-.63.36-.99.46-.34.1-.7.17-1.05.2l3.53 3.09c.08.06.14.14.18.23.05.09.07.18.07.28a.62.62 0 0 1-.42.6.73.73 0 0 1-.28.04.9.9 0 0 1-.68-.26l-4.16-3.7a.99.99 0 0 1-.25-.3.63.63 0 0 1-.08-.3c0-.09 0-.17.04-.25a.63.63 0 0 1 .63-.38h.2c.32 0 .65-.03.96-.08.3-.05.6-.14.86-.27.25-.12.47-.3.65-.49.2-.22.3-.48.34-.76h-3.16c-.08 0-.16 0-.23-.02a.58.58 0 0 1-.2-.11.5.5 0 0 1-.18-.38c0-.13.05-.25.15-.35a.6.6 0 0 1 .46-.16h3.1c-.28-.8-1.07-1.2-2.4-1.2l-.7.03Z" fill="#fff"/></svg>