<svg width="56" height="56" viewBox="0 0 56 56" xmlns="http://www.w3.org/2000/svg"><rect width="56" height="56" rx="8" fill="#F0F3FA"/><mask id="a3axebdh2" maskUnits="userSpaceOnUse" x="12" y="12" width="32" height="32"><path d="M20.96 12 12 20.93h16.02L12.32 36.7l7.03 7.01 15.7-15.75V44L44 35.07V12H20.96Z" fill="#fff"/></mask><g mask="url(#a3axebdh2)"><path d="m12 43 28.89-27.9-13.5 31.78L12 43Z" fill="#FFD776"/><path d="m15.47 40.56-3.8-3.9L26.82 21.3l14.08-6.2-25.42 25.46Z" fill="#F6B350"/><path d="m10.55 21.78 2.2-2.13 28.14-4.56-12.87 5.85-17.47.84Z" fill="#E39196"/><path d="m35.05 27.95 5.84-12.86L35.96 44l-.65.63-1.03-.63.77-16.05Z" fill="#99BEE5"/><path d="M40.89 15.1 12 20.93l8.66-9.48 20.23 3.63Z" fill="#C44260"/><path d="M20.95 12H44l-2.96 3.12L20.95 12Z" fill="#9D2951"/><path d="m35.05 44 5.84-28.9 3.3 20.05L35.04 44Z" fill="#4797D1"/><path d="M44 35.07 40.89 15.1 44 12v23.07Z" fill="#0C72AF"/></g></svg>